<svg xmlns="http://www.w3.org/2000/svg" viewBox="0 0 512 512" width="64" height="64">
  <circle cx="256" cy="256" r="240" fill="#f0f4ff" />
  <path d="M256 150c-58.5 0-106 47.5-106 106s47.5 106 106 106 106-47.5 106-106-47.5-106-106-106zm0 172c-36.4 0-66-29.6-66-66s29.6-66 66-66 66 29.6 66 66-29.6 66-66 66z" fill="#3366ff" />
  <path d="M256 220v72M220 256h72" stroke="#0044cc" stroke-width="12" stroke-linecap="round" />
  <path d="M320 180l30 30M162 338l30 30M162 180l30 30M320 338l30 30" stroke="#0044cc" stroke-width="8" stroke-linecap="round" />
</svg>