<svg xmlns="http://www.w3.org/2000/svg" viewBox="0 0 512 512" width="100" height="100">
  <defs>
    <linearGradient id="gradient" x1="0%" y1="0%" x2="100%" y2="100%">
      <stop offset="0%" stop-color="#3366ff" />
      <stop offset="100%" stop-color="#0044cc" />
    </linearGradient>
  </defs>
  <rect x="80" y="80" width="352" height="352" rx="40" ry="40" fill="url(#gradient)" />
  <path d="M256 150c-58.5 0-106 47.5-106 106s47.5 106 106 106 106-47.5 106-106-47.5-106-106-106zm0 172c-36.4 0-66-29.6-66-66s29.6-66 66-66 66 29.6 66 66-29.6 66-66 66z" fill="white" />
  <circle cx="256" cy="256" r="40" fill="white" />
  <path d="M352 180l-30 30m-132 132l-30 30m0-192l30 30m132 132l30 30" stroke="white" stroke-width="12" stroke-linecap="round" />
</svg>